<svg width="819" height="50" viewBox="0 0 819 79" fill="none" xmlns="http://www.w3.org/2000/svg">
<path d="M31.1089 2.99985C21.5089 6.33318 17.1089 12.8665 8.70894 35.6665C0.042277 59.1332 -1.29105 64.7331 0.975611 70.0665C4.17561 77.6665 4.30894 77.6665 67.6423 77.6665C122.176 77.6665 126.042 77.5332 130.842 75.1332C137.242 71.9332 141.242 66.0665 146.976 51.5332C153.109 35.9332 153.509 33.5332 150.976 31.1332C149.242 29.2665 144.176 28.9998 115.642 28.9998H82.3089L80.4422 33.2665L78.7089 37.6665L108.176 38.3332L137.776 38.9998L137.509 42.3332C137.242 48.1998 131.509 61.5332 127.642 65.2665L124.042 68.9998H68.5756C14.8423 68.9998 13.1089 68.8665 11.7756 66.3332C10.7089 64.1998 11.9089 59.6665 17.7756 43.3998C26.5756 19.1332 28.4423 15.6665 34.4423 12.7332C38.8423 10.4665 48.5756 10.3332 179.909 10.3332H320.709L322.042 5.66651L323.509 0.999849H180.042C59.7756 1.13318 35.6423 1.39985 31.1089 2.99985V2.99985ZM370.442 4.46652C369.642 6.33319 369.109 8.46652 369.109 9.13319C369.109 9.79985 392.042 10.3332 426.975 10.3332C491.242 10.3332 489.109 10.0665 489.109 18.9998C489.109 24.8665 484.842 34.5998 480.842 37.7998C478.175 39.9332 477.775 41.2665 478.175 45.7998C478.842 53.3998 474.575 62.7332 468.842 66.3332C464.575 68.8665 462.309 68.9998 405.509 68.9998H346.709L345.242 73.1332C344.442 75.5332 343.775 77.6665 343.775 77.7998C343.775 79.1332 466.309 78.1998 471.109 76.8665C474.042 76.0665 478.309 73.3998 480.709 70.8665C485.642 65.5332 490.442 53.6665 490.442 46.3332C490.442 42.5998 491.375 40.1999 493.642 37.9332C497.109 34.4665 501.109 22.9998 501.109 16.7332C501.109 10.4665 497.775 5.53319 491.775 3.13319C487.109 1.26652 478.842 0.999849 429.109 0.999849H371.775L370.442 4.46652V4.46652ZM514.709 23.2665C510.309 35.6665 506.309 46.7332 505.775 47.9332C504.842 50.1998 508.309 50.3332 561.909 50.5998C611.775 50.9998 619.109 51.2665 619.109 52.9998C619.109 54.7332 611.642 54.9998 560.842 55.3998L502.709 55.6665L501.242 59.9332C500.442 62.1998 499.775 64.3332 499.775 64.4665C499.775 64.7332 527.909 64.9998 562.175 64.9998C620.042 64.9998 624.842 64.8665 626.842 62.5998C629.642 59.3998 634.709 46.3332 633.909 44.1998C633.375 42.7332 622.309 42.3332 576.709 42.0665L520.042 41.6665L525.775 26.3332L531.375 10.9998L596.042 10.5999C656.309 10.3332 660.842 10.1999 661.509 7.9332C661.775 6.7332 662.575 4.59986 663.109 3.26653C664.042 1.1332 660.175 0.999849 593.509 0.999849H522.842L514.709 23.2665V23.2665ZM688.442 2.99985C679.509 6.06651 675.509 12.3332 666.309 36.7332C661.775 48.9998 657.775 61.6665 657.509 64.9998C656.975 70.1998 657.375 71.3998 660.442 74.3332L664.042 77.6665L720.842 78.0665C782.042 78.5998 788.575 78.0665 794.842 72.1998C799.775 67.6665 802.442 61.9331 810.575 39.3998C820.575 11.7998 820.575 6.86651 811.109 2.86651C804.442 0.199841 696.309 0.19985 688.442 2.99985V2.99985ZM804.175 13.1332C806.575 16.4665 806.042 18.8665 798.042 41.2665C790.575 62.0665 789.909 63.1332 784.709 66.3332C780.709 68.8665 777.509 68.9998 726.842 68.9998C679.909 68.9998 672.975 68.7332 671.242 66.8665C670.042 65.7998 669.109 64.1998 669.109 63.5332C669.109 61.1332 682.709 24.1998 685.509 19.3998C690.442 10.3332 690.309 10.3332 749.375 10.3332C801.242 10.3332 802.309 10.3332 804.175 13.1332V13.1332Z" fill="black"/>
<path d="M693.103 16.4665C691.503 17.5332 689.236 20.1998 688.303 22.1998C684.436 29.5331 673.903 59.6665 674.436 61.9332C674.836 64.1998 678.036 64.3331 726.569 64.7331C770.303 64.9998 778.836 64.7331 782.036 62.9998C785.103 61.5331 786.836 58.7331 789.903 50.7331C798.169 29.1331 801.369 18.8665 800.436 16.5998C799.636 14.4665 795.369 14.3332 747.903 14.3332C703.103 14.3332 695.636 14.5998 693.103 16.4665V16.4665ZM786.569 24.4665C787.236 25.2665 779.503 47.9332 776.703 53.1332C775.503 55.5332 773.236 55.6665 732.169 55.6665C695.236 55.6665 688.836 55.3998 688.836 53.6665C688.836 51.7998 697.369 27.3998 698.836 24.8665C699.769 23.5331 785.236 23.1332 786.569 24.4665V24.4665ZM35.7696 16.0665C34.1696 16.9998 32.0363 18.9998 30.9696 20.3332C27.9029 24.7332 15.2363 60.9998 16.0363 63.1332C16.7029 64.7332 24.8363 64.9998 68.5696 64.9998C118.703 64.9998 120.57 64.8665 123.903 62.3331C126.836 59.9331 132.836 47.5331 132.836 43.6665C132.836 42.8665 121.903 42.3332 104.836 42.3332H76.8362L75.5029 45.7998C74.7029 47.6665 74.1696 49.7998 74.1696 50.4665C74.1696 51.1332 83.5029 51.6665 96.3029 51.6665C113.37 51.6665 118.303 52.0665 117.903 53.2665C117.37 54.5998 107.103 55.1331 73.7696 55.3998C48.7029 55.5331 30.1696 55.1332 30.1696 54.4665C30.1696 53.5332 37.1029 33.7998 40.1696 25.9332C41.1029 23.7998 46.7029 23.6665 130.97 23.6665C180.436 23.6665 220.836 24.0665 220.836 24.4665C220.836 24.9998 216.703 36.8665 211.503 50.9998C206.436 65.1331 202.17 76.9998 202.17 77.5331C202.17 77.9331 204.703 78.3331 207.903 78.3331H213.503L220.703 58.5998C224.57 47.7998 229.903 33.3998 232.303 26.5998L236.836 14.3332H137.77C60.9696 14.4665 38.1696 14.8665 35.7696 16.0665V16.0665ZM230.17 44.5998C224.036 61.3998 218.836 75.7998 218.436 76.5998C218.036 77.7998 219.636 78.3331 223.77 78.3331H229.77L239.636 50.9998L249.503 23.6665H315.236L316.703 19.5332C317.503 17.1332 318.169 14.9998 318.169 14.8665C318.169 14.5998 300.836 14.3332 279.636 14.3332H241.236L230.17 44.5998V44.5998ZM364.969 18.4665C364.169 20.8665 363.503 22.9998 363.503 23.1332C363.503 23.3998 387.903 23.6665 417.636 23.6665C468.436 23.6665 471.636 23.7998 471.236 25.9332C470.836 28.1998 467.636 28.3331 430.569 28.7331L390.436 28.9998L388.969 33.2665C388.169 35.5332 387.503 37.6665 387.503 37.9332C387.503 38.1998 406.836 38.3331 430.569 38.0665C463.236 37.7998 474.303 37.2665 476.569 35.9332C482.703 32.4665 487.236 16.8665 482.703 15.1332C481.503 14.7332 454.969 14.3332 423.503 14.3332H366.436L364.969 18.4665V18.4665ZM532.969 17.2665C532.436 18.9998 530.569 23.7998 528.969 28.0665C527.503 32.3331 526.169 36.3332 526.169 36.9998C526.169 37.7998 546.969 38.3332 581.503 38.3332C644.036 38.3332 640.036 37.5331 636.969 48.8665C634.703 57.3998 630.436 65.9332 627.769 67.2665C626.569 67.7998 596.703 68.5998 561.636 68.9998L497.636 69.6665L495.903 73.9332L494.169 78.3331H559.236C597.769 78.3331 626.036 77.7998 628.703 76.9998C636.036 74.9998 641.769 68.3331 646.169 56.7331C650.036 46.8665 651.236 36.7331 649.103 33.5331C646.303 29.3998 641.903 28.9998 591.503 28.9998C545.636 28.9998 540.569 28.7331 541.369 26.8665C541.769 25.6665 542.169 24.4665 542.169 24.1998C542.169 23.9331 567.636 23.6665 598.703 23.6665H655.236L656.703 19.5332C657.503 17.1332 658.169 14.9998 658.169 14.8665C658.169 14.5998 630.303 14.3332 596.169 14.3332H534.169L532.969 17.2665V17.2665ZM384.303 45.2665C383.903 46.9998 383.503 48.7332 383.503 49.2665C383.503 49.9332 400.303 50.3331 420.703 50.3331C441.236 50.3331 458.836 50.7332 460.036 51.1332C461.103 51.5332 461.636 52.7332 461.236 53.7998C460.703 55.3998 451.903 55.6665 406.036 55.6665H351.503L350.169 59.1332C349.369 60.9998 348.836 63.1332 348.836 63.7998C348.836 65.7998 460.703 65.3998 464.836 63.2665C470.036 60.7332 474.303 53.1331 473.903 47.6665L473.503 42.9998L429.369 42.5998L385.103 42.3332L384.303 45.2665V45.2665Z" fill="black"/>
</svg>
